<?xml version="1.0" encoding="UTF-8"?>
<svg xmlns="http://www.w3.org/2000/svg" xmlns:xlink="http://www.w3.org/1999/xlink" viewBox="0 0 50 50" width="50px" height="50px">
<g id="surface41850158">
<path style=" stroke:none;fill-rule:nonzero;fill:rgb(0%,0%,0%);fill-opacity:1;" d="M 30.988281 2.988281 C 30.726562 2.992188 30.476562 3.101562 30.292969 3.292969 L 25 8.585938 L 19.707031 3.292969 C 19.519531 3.097656 19.261719 2.992188 18.992188 2.988281 C 18.582031 2.992188 18.21875 3.238281 18.0625 3.613281 C 17.910156 3.992188 18 4.421875 18.292969 4.707031 L 22.585938 9 L 17 9 C 10.9375 9 6 13.9375 6 20 L 6 36 C 6 42.0625 10.9375 47 17 47 L 33 47 C 39.0625 47 44 42.0625 44 36 L 44 20 C 44 13.9375 39.0625 9 33 9 L 27.414062 9 L 31.707031 4.707031 C 32.003906 4.421875 32.09375 3.980469 31.9375 3.601562 C 31.777344 3.222656 31.402344 2.976562 30.988281 2.984375 Z M 17 11 L 33 11 C 37.984375 11 42 15.015625 42 20 L 42 36 C 42 40.984375 37.984375 45 33 45 L 17 45 C 12.015625 45 8 40.984375 8 36 L 8 20 C 8 15.015625 12.015625 11 17 11 Z M 24.972656 24 C 24.898438 24.003906 24.828125 24.011719 24.757812 24.027344 L 12.757812 27.027344 C 12.410156 27.117188 12.136719 27.378906 12.039062 27.722656 C 11.941406 28.066406 12.03125 28.4375 12.28125 28.695312 C 12.527344 28.953125 12.894531 29.058594 13.242188 28.972656 L 24 26.28125 L 24 31 C 24 31.308594 24.140625 31.597656 24.382812 31.789062 C 24.625 31.976562 24.945312 32.046875 25.242188 31.972656 L 37.242188 28.972656 C 37.589844 28.882812 37.863281 28.621094 37.960938 28.277344 C 38.058594 27.933594 37.96875 27.5625 37.71875 27.304688 C 37.472656 27.046875 37.105469 26.941406 36.757812 27.027344 L 26 29.71875 L 26 25 C 26 24.730469 25.890625 24.472656 25.695312 24.28125 C 25.503906 24.09375 25.242188 23.992188 24.972656 24 Z M 24.972656 24 "/>
</g>
</svg>
